<svg xmlns="http://www.w3.org/2000/svg" viewBox="0 0 31 33">
    <g fill="none" fill-rule="evenodd">
        <g fill="#000">
            <g>
                <g>
                    <g>
                        <g>
                            <g>
                                <path d="M18.21 0c4.132 0 7.73 1.635 9.531 4.765l.032.058c1.162 1.986 1.855 4.4 2.192 6.963h-5.487v1.767h1.91v6.011h1.967v-6.011h1.786c.363 5.347-.684 11.047-2.16 14.722l-.119.261c-.537 1.12-1.406 2.098-2.561 2.767-1.247.72-2.633.973-3.957.812l-.333-.05c-6.287-.998-16.184-5.423-19.828-11.856-.01-.02-.022-.037-.033-.057-.11-.193-.213-.39-.308-.589H2.07l.446-.969h2.908l.456.97h2.098v-.279l-3.489-7.5H3.472l-3.09 6.584c-1.58-5.24 1.852-11.907 8.422-15.708C11.899.868 15.196 0 18.21 0zm-2.847 11.784c-.46-.098-.851-.125-1.176-.085-.327.041-.6.127-.823.256-.222.131-.399.297-.527.5-.13.205-.224.425-.284.663-.111.468-.21.826-.3 1.075-.088.249-.221.418-.4.507-.14.074-.323.113-.548.116-.226.004-.421.006-.584.007v-3.037H8.69v7.778h2.032v-2.971c.14 0 .307-.003.499-.005.193-.006.349-.014.467-.03l1.7 3.006h2.296v-.3c-.377-.579-.746-1.159-1.109-1.742s-.733-1.163-1.11-1.742c.214-.238.395-.526.543-.864.148-.337.286-.74.411-1.207.059-.239.171-.394.334-.468.163-.073.366-.104.61-.089zm7.391 0h.681v7.78h-2.03v-4.02l-4.087 4.042h-.601v-7.801h2.034v3.794l4.003-3.794zM3.171 16.894h1.61l-.811-1.881-.8 1.88z" transform="translate(-1059 -7261) translate(0 6892) translate(694 369) translate(365)"/>
                            </g>
                        </g>
                    </g>
                </g>
            </g>
        </g>
    </g>
</svg>
