<svg width="33" height="33" viewBox="0 0 33 33" fill="none" xmlns="http://www.w3.org/2000/svg">
<path d="M14.6637 10.9994C14.6642 11.7247 14.4493 12.4338 14.0463 13.0372C13.6434 13.6404 13.0705 14.1108 12.4001 14.3887C11.7299 14.6666 10.992 14.7393 10.2803 14.5982C9.56846 14.457 8.91457 14.1079 8.40128 13.595C7.88799 13.0821 7.53837 12.4288 7.39666 11.7175C7.25494 11.0061 7.32746 10.2686 7.60509 9.59841C7.88271 8.92821 8.35295 8.3554 8.95632 7.95236C9.5597 7.54933 10.2691 7.33419 10.9947 7.33419C11.9676 7.33419 12.9003 7.72029 13.5883 8.40758C14.2763 9.09488 14.6632 10.0271 14.6637 10.9994ZM21.9993 7.33419C21.2736 7.33419 20.5642 7.54933 19.9608 7.95236C19.3574 8.3554 18.8872 8.92821 18.6095 9.59841C18.3319 10.2686 18.2594 11.0061 18.4011 11.7175C18.5428 12.4288 18.8924 13.0821 19.4057 13.595C19.9191 14.1079 20.5729 14.457 21.2848 14.5982C21.9966 14.7393 22.7343 14.6666 23.4047 14.3887C24.0751 14.1108 24.6478 13.6404 25.0507 13.0372C25.4537 12.4338 25.6685 11.7247 25.668 10.9994C25.668 10.5178 25.5733 10.0411 25.3889 9.5963C25.2046 9.15152 24.9341 8.74738 24.5934 8.40701C24.2528 8.06664 23.8483 7.79671 23.4032 7.61263C22.9581 7.42855 22.4812 7.33394 21.9993 7.33419ZM10.9947 18.3336C10.2692 18.3336 9.55985 18.5487 8.95652 18.9517C8.35319 19.3546 7.88296 19.9273 7.60529 20.5972C7.32759 21.2674 7.25496 22.0048 7.39652 22.7162C7.53807 23.4275 7.88747 24.0808 8.40056 24.5937C8.91365 25.1065 9.5674 25.4559 10.2791 25.5973C10.9907 25.7388 11.7284 25.6661 12.3988 25.3887C13.0692 25.111 13.6422 24.6411 14.0453 24.0379C14.4485 23.435 14.6637 22.7258 14.6637 22.0006C14.6637 21.0282 14.2771 20.0953 13.5891 19.4077C12.901 18.7199 11.9678 18.3336 10.9947 18.3336ZM21.9993 18.3336C21.2738 18.3336 20.5645 18.5487 19.961 18.9517C19.3579 19.3546 18.8874 19.9273 18.6098 20.5972C18.3321 21.2674 18.2594 22.0048 18.4011 22.7162C18.5425 23.4275 18.8919 24.0808 19.405 24.5937C19.9181 25.1065 20.5719 25.4559 21.2835 25.5973C21.9954 25.7388 22.733 25.6661 23.4035 25.3887C24.0736 25.111 24.6468 24.6411 25.0497 24.0379C25.4529 23.435 25.668 22.7258 25.668 22.0006C25.668 21.0282 25.2817 20.0953 24.5937 19.4077C23.9056 18.7199 22.9725 18.3336 21.9993 18.3336ZM0 3.66709V29.3251C0 30.2975 0.386274 31.2299 1.07391 31.9175C1.76153 32.6052 2.69417 32.9918 3.66687 32.9923H29.3467L25.6934 29.3407L3.66687 29.3251V3.66709H29.3467V33C30.3183 32.9958 31.2488 32.6067 31.9336 31.9177C32.6186 31.2287 33.002 30.2965 33 29.3251V3.66709C33 2.69454 32.6134 1.76178 31.9254 1.07406C31.2374 0.386348 30.3042 0 29.3313 0H3.65719C2.68618 0.00307669 1.75597 0.39079 1.07044 1.07818C0.384934 1.76557 0 2.69655 0 3.66709Z" fill="black"/>
</svg>
