<svg xmlns="http://www.w3.org/2000/svg" viewBox="0 0 48 34">
    <g fill="none" fill-rule="evenodd">
        <g fill="#000">
            <g>
                <g>
                    <g>
                        <g>
                            <g>
                                <path d="M3.721 2.79c-.79 0-1.56.138-2.148.414C1.003 3.47 0 4.314 0 5.921v4.44h1.875V6.34c0-.211.032-.84.062-1.006.17-.82.779-1.015 1.677-1.015.09 0 .196.005.305.012l.435-1.496c-.153-.03-.45-.046-.633-.046M5.884 5.82c.076-.745.566-1.777 1.723-1.777 1.25 0 1.554 1.105 1.54 1.778H5.884zm5.03.507c0-1.595-.778-3.537-3.203-3.537-2.376 0-3.626 1.896-3.626 3.91 0 2.226 1.419 3.687 3.828 3.687 1.064 0 1.95-.21 2.591-.462l-.274-1.268c-.564.21-1.189.33-2.059.33-1.19 0-2.24-.571-2.286-1.884h4.966c.033-.164.063-.43.063-.776zM40.225 2.79c-.79 0-1.558.138-2.148.414-.57.266-1.57 1.11-1.57 2.717v4.44h1.874V6.34c0-.211.031-.84.06-1.006.168-.82.779-1.015 1.678-1.015.09 0 .197.005.308.012l.434-1.496c-.151-.03-.454-.046-.636-.046M42.39 5.82c.074-.745.562-1.777 1.722-1.777 1.248 0 1.553 1.105 1.539 1.778H42.39zm5.03.507c0-1.595-.779-3.537-3.204-3.537-2.376 0-3.628 1.896-3.628 3.91 0 2.226 1.42 3.687 3.829 3.687 1.066 0 1.95-.21 2.591-.462l-.275-1.268c-.564.21-1.19.33-2.059.33-1.189 0-2.24-.571-2.284-1.884h4.968c.033-.164.061-.43.061-.776zM20.31 4.375c-1.371-.525-1.967-.881-1.967-1.657 0-.583.518-1.209 1.708-1.209.959 0 1.678.281 2.043.474L22.55.508C22.018.238 21.193 0 20.08 0c-2.222 0-3.625 1.253-3.625 2.896 0 1.448 1.08 2.328 2.771 2.925 1.313.463 1.832.911 1.832 1.67 0 .822-.67 1.376-1.877 1.376-.958 0-1.875-.299-2.484-.644l-.41 1.523c.561.33 1.69.641 2.773.641 2.655 0 3.904-1.416 3.904-3.029 0-1.448-.87-2.33-2.654-2.983M26.86 8.881c-.718 0-.965-.465-.965-1.345V4.327l1.301.003.401-1.376h-1.702V.891l-1.828.895v5.96c0 .957.184 1.612.58 2.029.35.374.933.612 1.615.612.597 0 1.086-.09 1.358-.196l-.03-1.399c-.211.058-.381.09-.73.09M31.844 9.06C30.701 9.06 30 8 30 6.596c0-1.21.53-2.462 1.858-2.462 1.28 0 1.799 1.298 1.799 2.43 0 1.466-.748 2.494-1.813 2.494m.062-6.27c-2.242 0-3.844 1.466-3.843 3.852-.001 2.33 1.616 3.746 3.72 3.746 1.888 0 3.81-1.192 3.81-3.864 0-2.21-1.479-3.733-3.687-3.733M13.524 5.344h.015c.702 0 1.159-.492 1.159-1.163C14.683 3.494 14.228 3 13.539 3c-.669 0-1.157.494-1.157 1.18 0 .672.474 1.164 1.142 1.164M13.54 7.884c-.67 0-1.157.491-1.157 1.178 0 .657.473 1.166 1.14 1.166h.016c.702 0 1.159-.509 1.159-1.166-.014-.7-.47-1.178-1.159-1.178" transform="translate(-694 -7260) translate(0 6892) translate(694 369) translate(0 11)"/>
                            </g>
                        </g>
                    </g>
                </g>
            </g>
        </g>
    </g>
</svg>
