<svg xmlns="http://www.w3.org/2000/svg" viewBox="0 0 60 34">
    <g fill="none" fill-rule="evenodd">
        <g>
            <g>
                <g>
                    <g>
                        <g>
                            <g>
                                <g>
                                    <path d="M0.078 0.464L5.897 0.464 5.897 10 0.078 10z" transform="translate(-772 -7260) translate(0 6892) translate(694 369) translate(78) translate(0 11) translate(28 .6)"/>
                                    <path fill="#000" d="M4.9 4.857c-.302-.205-.618-.388-.946-.546-.476-.229-.924-.51-1.338-.836-.248-.259-.319-.639-.18-.969.093-.226.321-.364.565-.34 0 0 .599.036.599.574v.76h2.147V2.382S5.912.55 3.217.47c0 0-2.118-.152-2.727 1.1-.207.38-.29.816-.237 1.246v.7c-.01.466.112.927.353 1.328.202.282.452.525.74.72 0 0 1.067.627 1.707.985.36.224.575.622.562 1.045-.019.361-.319.641-.679.634-.341-.027-.598-.326-.57-.668v-.77H.079v1.1S.014 10 2.955 10c0 0 2.808.062 2.94-2.164v-.899c.038-.816-.336-1.597-.994-2.08" transform="translate(-772 -7260) translate(0 6892) translate(694 369) translate(78) translate(0 11) translate(28 .6)"/>
                                </g>
                                <path fill="#000" d="M21.91 1.331L21.192 6.255 21.023 6.255 20.336 1.376 16.75 1.376 16.57 10.29 18.693 10.29 18.72 3.573 18.887 3.573 20.013 10.289 22.246 10.289 23.357 3.576 23.506 3.576 23.556 10.29 25.691 10.29 25.462 1.331zM9.271 1.369L7.858 10.283 10.144 10.283 10.98 3.371 11.168 3.371 12.005 10.283 14.29 10.283 12.879 1.369z" transform="translate(-772 -7260) translate(0 6892) translate(694 369) translate(78) translate(0 11)"/>
                                <g>
                                    <path d="M0.429 0.399L6 0.399 6 9.918 0.429 9.918z" transform="translate(-772 -7260) translate(0 6892) translate(694 369) translate(78) translate(0 11) translate(54 .6)"/>
                                    <path fill="#000" d="M3.236 4.734v1.314h.585v1.413c0 .689-.54.7-.54.7-.339.01-.622-.256-.633-.596 0-.019 0-.039.002-.06V2.626c0-.5.583-.53.583-.53.558 0 .563.6.563.6v.742h2.15c.072-1.449-.192-1.8-.192-1.8C5.218.33 3.2.4 3.2.4.093.4.44 3 .44 3v4.719c.065 2.441 3.123 2.194 3.175 2.19.645-.008 1.27-.232 1.772-.636.23-.19.397-.445.478-.732.083-.338.128-.684.135-1.033V4.735H3.234v-.001z" transform="translate(-772 -7260) translate(0 6892) translate(694 369) translate(78) translate(0 11) translate(54 .6)"/>
                                </g>
                                <path fill="#000" d="M50.101 6.786L50.008 6.786 47.824 1.334 45.21 1.334 45.21 10.293 47.337 10.293 47.21 4.842 47.304 4.842 49.568 10.293 52.102 10.293 52.102 1.334 49.95 1.334zM40.018 8.061s.03.734-.592.734c-.35.016-.645-.255-.661-.605-.002-.037 0-.074.004-.11l-.006-6.74H36.43v6.685s-.238 2.53 3.028 2.53c0 0 2.84.037 2.84-2.414v-6.8h-2.28v6.72z" transform="translate(-772 -7260) translate(0 6892) translate(694 369) translate(78) translate(0 11)"/>
                                <g>
                                    <path d="M0 0.462L5.82 0.462 5.82 10 0 10z" transform="translate(-772 -7260) translate(0 6892) translate(694 369) translate(78) translate(0 11) translate(0 .6)"/>
                                    <path fill="#000" d="M4.823 4.857c-.3-.205-.617-.387-.944-.546-.475-.229-.924-.51-1.338-.836-.248-.259-.319-.639-.18-.969.092-.226.321-.364.565-.34 0 0 .6.036.6.574v.76h2.147V2.381S5.833.55 3.14.47c-.167-.01-.334-.01-.5 0 0 0-1.632.097-2.216 1.075l-.01.02c-.209.38-.293.816-.24 1.247v.7c-.01.467.113.927.353 1.328.201.282.452.525.74.72 0 0 1.067.627 1.708.985.36.223.574.622.561 1.045-.018.36-.317.64-.677.634-.343-.027-.599-.326-.572-.669l.001-.007V6.79H0v1.1S-.064 10 2.876 10c0 0 2.808.062 2.941-2.164v-.899c.04-.817-.335-1.599-.994-2.082v.002z" transform="translate(-772 -7260) translate(0 6892) translate(694 369) translate(78) translate(0 11) translate(0 .6)"/>
                                </g>
                            </g>
                        </g>
                    </g>
                </g>
            </g>
        </g>
    </g>
</svg>
