<svg width="180" height="180" viewBox="0 0 180 180" fill="none" xmlns="http://www.w3.org/2000/svg">
<path d="M78.9684 55.5948H36.8082C36.1528 55.5948 35.7159 56.141 35.7159 56.6871V123.313C35.7159 123.969 36.2621 124.406 36.8082 124.406H51.3349C51.9902 124.406 52.4271 123.859 52.4271 123.313V119.709V70.9953C52.4271 70.34 52.9732 69.9031 53.5193 69.9031H80.0606C85.3033 70.0123 90.3276 70.6677 92.949 73.289C96.1164 76.4565 96.4441 82.6822 96.4441 88.6895V123.204V123.313C96.4441 123.969 96.9902 124.406 97.5363 124.406H112.172C112.828 124.406 113.264 123.859 113.264 123.313V90.0002C113.264 78.9686 112.718 67.5002 107.039 61.7114C101.468 56.0317 89.9999 55.5948 78.9684 55.5948Z" fill="white"/>
<path d="M82.245 82.1361H66.8446C66.1892 82.1361 65.7523 82.6822 65.7523 83.2283V123.313C65.7523 123.969 66.2984 124.406 66.8446 124.406H82.245C82.9004 124.406 83.3373 123.859 83.3373 123.313V83.1191C83.3373 82.573 82.7912 82.1361 82.245 82.1361Z" fill="white"/>
<path d="M142.318 55.5948H127.791C127.136 55.5948 126.699 56.141 126.699 56.6871V123.313C126.699 123.969 127.245 124.406 127.791 124.406H142.427C143.082 124.406 143.519 123.859 143.519 123.313V56.6871C143.519 56.0317 142.973 55.5948 142.318 55.5948Z" fill="white"/>
<path d="M161.214 18.7864C144.175 1.8568 119.818 0 90 0C60.0728 0 35.716 1.96602 18.6772 18.8956C1.74757 35.8252 0 60.2913 0 90.1092C0 119.927 1.74757 144.393 18.6772 161.323C35.6068 178.252 60.0728 180 90 180C119.927 180 144.284 178.252 161.323 161.323C178.252 144.393 180 119.927 180 90.1092C180 60.182 178.252 35.716 161.214 18.7864ZM83.3374 123.313C83.3374 123.968 82.7913 124.405 82.2451 124.405H66.8447C66.1893 124.405 65.7524 123.859 65.7524 123.313V83.1189C65.7524 82.4636 66.2985 82.0267 66.8447 82.0267H82.2451C82.9005 82.0267 83.3374 82.5728 83.3374 83.1189V123.313ZM113.374 123.313C113.374 123.968 112.828 124.405 112.282 124.405H97.6456C96.9903 124.405 96.5534 123.859 96.5534 123.313V123.204V88.6893C96.5534 82.682 96.2257 76.4563 93.0582 73.2888C90.3277 70.5582 85.4126 70.0121 80.1699 69.9029H53.6286C52.9733 69.9029 52.5364 70.449 52.5364 70.9951V119.709V123.313C52.5364 123.968 51.9903 124.405 51.4442 124.405H36.8082C36.1529 124.405 35.716 123.859 35.716 123.313V56.6869C35.716 56.0316 36.2621 55.5947 36.8082 55.5947H78.9684C90 55.5947 101.468 56.1408 107.257 61.8204C112.937 67.5 113.483 79.0777 113.483 90.1092V123.313H113.374ZM143.519 123.313C143.519 123.968 142.973 124.405 142.427 124.405H127.791C127.136 124.405 126.699 123.859 126.699 123.313V56.6869C126.699 56.0316 127.245 55.5947 127.791 55.5947H142.427C143.083 55.5947 143.519 56.1408 143.519 56.6869V123.313Z" fill="black"/>
</svg>
